<?xml version="1.0" standalone="no"?>
<!DOCTYPE svg PUBLIC "-//W3C//DTD SVG 20010904//EN"
 "http://www.w3.org/TR/2001/REC-SVG-20010904/DTD/svg10.dtd">
<svg version="1.0" xmlns="http://www.w3.org/2000/svg"
 width="1136.000000pt" height="1136.000000pt" viewBox="0 0 1136.000000 1136.000000"
 preserveAspectRatio="xMidYMid meet">
<metadata>
Created by potrace 1.11, written by Peter Selinger 2001-2013
</metadata>
<g transform="translate(0.000000,1136.000000) scale(0.100000,-0.100000)"
fill="#000000" stroke="none">
<path d="M2775 10412 c-60 -10 -102 -43 -141 -112 -10 -19 -25 -41 -31 -48 -7
-7 -13 -20 -13 -28 0 -8 -3 -14 -8 -14 -4 0 -16 -17 -27 -37 -11 -21 -23 -40
-26 -43 -3 -3 -12 -17 -20 -32 -8 -15 -43 -74 -78 -130 -35 -57 -86 -141 -114
-188 -29 -47 -55 -86 -59 -88 -5 -2 -8 -7 -8 -12 0 -7 -51 -94 -116 -197 -8
-13 -14 -26 -13 -29 0 -4 -3 -10 -8 -13 -9 -7 -63 -88 -63 -95 0 -2 -31 -54
-70 -115 -38 -60 -70 -115 -70 -120 0 -6 -4 -11 -10 -11 -5 0 -10 -4 -10 -9 0
-5 -21 -43 -47 -85 -27 -42 -55 -89 -64 -104 -9 -15 -52 -85 -96 -157 -44 -71
-86 -141 -94 -155 -8 -14 -16 -27 -19 -30 -3 -3 -12 -16 -19 -30 -8 -14 -44
-73 -80 -132 -37 -59 -99 -163 -140 -230 -41 -68 -79 -126 -83 -129 -5 -3 -10
-13 -12 -22 -1 -9 -9 -24 -17 -34 -9 -10 -29 -40 -45 -68 -44 -75 -40 -70
-174 -287 -69 -111 -129 -210 -135 -220 -50 -87 -130 -214 -137 -216 -4 -2 -8
-10 -8 -18 0 -8 -9 -24 -20 -36 -11 -12 -20 -28 -20 -35 0 -7 -4 -13 -10 -13
-5 0 -10 -4 -10 -9 0 -5 -18 -38 -40 -72 -22 -35 -46 -75 -52 -89 -7 -14 -16
-29 -21 -35 -15 -21 -55 -84 -152 -245 -54 -91 -104 -168 -109 -172 -7 -5 -7
-8 -1 -8 6 0 2 -7 -8 -14 -10 -8 -19 -18 -19 -23 0 -4 -11 -26 -24 -49 -82
-140 -105 -270 -68 -381 17 -51 130 -253 148 -265 6 -4 8 -8 4 -8 -4 0 21 -46
54 -102 34 -57 69 -117 79 -134 9 -17 36 -62 58 -99 23 -37 41 -69 41 -71 0
-3 12 -23 27 -47 33 -51 69 -113 86 -147 6 -14 14 -27 17 -30 3 -3 27 -41 52
-85 64 -111 78 -135 118 -202 19 -32 33 -61 32 -65 -1 -5 2 -8 6 -8 5 0 17
-18 27 -40 10 -22 22 -40 27 -40 4 0 8 -5 8 -10 0 -6 18 -40 40 -76 22 -36 40
-68 40 -70 0 -2 18 -33 40 -69 22 -36 40 -70 40 -75 0 -6 4 -10 9 -10 5 0 11
-6 13 -12 2 -10 123 -220 239 -416 9 -15 25 -43 36 -62 11 -19 34 -59 52 -88
17 -29 31 -57 31 -62 0 -6 4 -10 9 -10 5 0 11 -8 14 -17 6 -18 37 -73 47 -83
3 -3 12 -18 20 -35 8 -16 39 -69 67 -117 29 -47 53 -89 53 -92 0 -4 5 -12 10
-19 19 -22 160 -266 160 -276 0 -6 3 -11 8 -11 4 0 12 -10 18 -23 18 -37 272
-471 284 -484 5 -7 10 -15 10 -18 0 -3 18 -35 40 -71 22 -36 40 -68 40 -71 0
-2 15 -27 33 -56 18 -29 36 -59 40 -67 4 -8 15 -28 26 -45 10 -16 27 -46 38
-65 34 -57 117 -199 137 -233 10 -18 26 -45 35 -62 9 -16 29 -49 44 -72 15
-24 27 -45 27 -48 0 -3 11 -22 23 -43 46 -72 57 -92 57 -97 -1 -3 8 -17 20
-32 11 -14 20 -32 20 -39 0 -8 4 -14 8 -14 5 0 19 -21 33 -46 13 -25 29 -53
34 -62 46 -76 100 -168 100 -172 0 -3 8 -16 17 -30 8 -14 32 -50 51 -81 36
-57 126 -159 141 -159 4 0 21 -9 36 -20 15 -11 44 -21 64 -22 20 -2 36 -5 36
-8 0 -7 5239 -4 5265 3 11 3 22 6 25 7 3 1 8 2 13 1 4 -1 29 10 55 23 50 25
88 59 131 116 14 19 30 38 34 41 5 3 8 8 7 10 -3 5 15 35 105 179 36 58 72
120 80 138 9 17 20 32 25 32 6 0 10 8 10 19 0 10 7 24 15 31 8 7 27 36 42 66
15 30 31 54 35 54 4 0 8 4 8 10 0 5 34 64 75 131 41 66 75 122 75 124 0 5 76
126 89 141 5 6 12 20 15 32 4 12 12 22 18 22 6 0 8 3 5 7 -4 3 -1 13 6 22 7 9
33 50 57 91 25 41 47 77 50 80 9 9 41 65 47 82 3 10 9 18 14 18 5 0 9 7 9 15
0 8 5 15 11 15 5 0 8 4 4 9 -3 5 -1 12 4 16 5 3 33 45 61 93 28 48 69 116 90
151 22 34 40 65 40 67 0 7 53 87 68 102 7 8 10 18 7 23 -4 5 -1 9 4 9 6 0 11
6 11 14 0 8 4 16 8 18 6 2 104 160 167 270 6 10 50 84 100 165 49 81 94 156
100 165 38 65 136 225 142 234 10 13 31 48 61 104 14 25 30 50 36 55 6 6 20
28 32 50 11 22 71 123 134 225 62 102 118 194 124 205 14 25 108 179 184 301
17 29 32 58 32 64 0 5 4 10 9 10 5 0 11 8 14 17 5 15 63 112 97 163 59 88 168
289 173 317 1 10 6 23 10 29 3 6 4 14 0 17 -3 4 -7 23 -8 44 -4 58 -33 124
-133 297 -51 87 -92 163 -92 167 0 5 -4 9 -10 9 -5 0 -10 4 -10 10 0 5 -20 43
-45 83 -25 41 -45 78 -45 82 0 5 -6 16 -14 24 -7 9 -24 36 -37 61 -13 25 -27
47 -30 50 -3 3 -8 12 -12 20 -3 8 -20 38 -37 65 -16 28 -33 57 -37 65 -3 8
-18 33 -32 55 -14 22 -30 50 -36 62 -21 45 -97 113 -163 145 l-67 33 -561 0
-560 0 -36 -25 c-53 -36 -72 -75 -73 -145 0 -59 17 -98 105 -235 5 -8 16 -28
25 -45 8 -16 19 -37 25 -45 19 -29 167 -289 213 -375 12 -22 25 -42 28 -45 3
-3 25 -41 50 -85 24 -44 49 -89 56 -100 7 -11 15 -27 19 -35 4 -8 10 -17 14
-20 15 -12 36 -87 33 -118 -4 -45 -43 -126 -103 -212 -9 -14 -20 -32 -23 -40
-4 -8 -25 -44 -47 -79 -22 -34 -40 -67 -40 -72 0 -5 -4 -9 -10 -9 -5 0 -10 -7
-10 -15 0 -8 -5 -15 -11 -15 -5 0 -8 -4 -5 -9 3 -5 -1 -14 -9 -21 -8 -7 -15
-19 -15 -26 0 -8 -3 -14 -7 -14 -5 0 -13 -10 -19 -23 -6 -12 -95 -161 -199
-332 -103 -170 -195 -323 -205 -340 -10 -16 -26 -45 -36 -62 -11 -18 -22 -33
-26 -33 -5 0 -8 -9 -8 -20 0 -11 -4 -20 -8 -20 -5 0 -16 -15 -26 -32 -24 -46
-44 -81 -56 -98 -19 -28 -82 -135 -104 -175 -11 -22 -26 -44 -32 -50 -6 -5
-21 -31 -35 -58 -13 -26 -27 -47 -31 -47 -5 0 -8 -4 -8 -9 0 -6 -25 -50 -55
-98 -31 -48 -61 -100 -68 -116 -6 -15 -15 -27 -19 -27 -4 0 -8 -4 -8 -9 0 -8
-58 -109 -78 -134 -5 -7 -20 -32 -33 -57 -13 -25 -27 -47 -30 -50 -3 -3 -14
-21 -25 -40 -10 -19 -23 -38 -29 -42 -7 -5 -7 -8 0 -8 7 0 7 -3 0 -8 -13 -9
-75 -111 -75 -123 0 -5 -4 -9 -10 -9 -5 0 -10 -4 -10 -9 0 -5 -38 -71 -85
-147 -76 -126 -165 -274 -205 -343 -43 -73 -99 -108 -177 -109 -24 -1 -47 -4
-53 -7 -5 -3 -10 -2 -10 2 0 10 -102 9 -119 -1 -6 -4 -16 -4 -23 0 -15 10 -60
10 -75 1 -7 -4 -14 -4 -17 1 -5 9 -109 8 -125 -2 -6 -4 -16 -4 -23 0 -15 9
-58 10 -81 1 -9 -3 -17 -3 -17 1 0 9 -103 7 -119 -2 -6 -4 -16 -4 -23 0 -16
10 -69 11 -75 1 -2 -4 -9 -4 -15 0 -16 9 -118 10 -118 0 0 -5 -5 -5 -11 -1
-11 6 -149 9 -174 4 -5 -1 -12 -1 -15 0 -16 6 -60 4 -60 -3 0 -4 -5 -5 -12 -1
-15 10 -60 10 -75 1 -7 -4 -14 -4 -17 1 -5 9 -109 8 -125 -2 -6 -4 -16 -4 -23
0 -15 9 -58 10 -81 1 -9 -3 -17 -3 -17 1 0 9 -103 7 -119 -2 -6 -4 -16 -4 -23
0 -16 10 -69 11 -75 1 -2 -4 -9 -4 -15 0 -16 9 -118 10 -118 0 0 -5 -5 -5 -11
-1 -11 6 -149 9 -174 4 -5 -1 -12 -1 -15 0 -16 6 -60 4 -60 -3 0 -4 -5 -5 -12
-1 -15 10 -60 10 -75 1 -7 -4 -14 -4 -17 1 -5 9 -109 8 -125 -2 -6 -4 -16 -4
-23 0 -15 9 -58 10 -81 1 -9 -3 -17 -3 -17 1 0 9 -103 7 -119 -2 -6 -4 -16 -4
-23 0 -15 10 -60 10 -75 1 -7 -4 -14 -4 -17 1 -5 9 -109 8 -125 -2 -6 -4 -16
-4 -23 0 -15 9 -58 10 -81 1 -9 -3 -17 -3 -17 1 0 9 -103 7 -119 -2 -6 -4 -11
-3 -11 1 0 10 -53 9 -69 -2 -6 -3 -16 -3 -23 1 -15 9 -58 10 -81 1 -9 -3 -17
-3 -17 1 0 9 -103 7 -119 -2 -6 -4 -11 -3 -11 1 0 10 -53 9 -69 -2 -6 -3 -16
-3 -23 1 -15 9 -58 10 -81 1 -9 -3 -17 -3 -17 1 0 9 -103 7 -119 -2 -6 -4 -11
-3 -11 1 0 10 -53 9 -69 -2 -6 -3 -16 -3 -22 1 -7 4 -44 7 -83 8 -102 3 -144
30 -191 122 -11 21 -26 45 -32 52 -7 7 -13 20 -13 28 0 8 -4 14 -10 14 -5 0
-10 5 -10 10 0 6 -12 29 -27 53 -15 23 -37 60 -49 83 -12 22 -34 61 -50 85
-16 24 -29 46 -29 49 0 3 -8 16 -16 30 -9 14 -43 70 -75 125 -52 89 -69 118
-108 190 -6 11 -19 31 -27 45 -9 14 -53 88 -98 165 -45 77 -86 147 -91 155
-57 96 -126 217 -129 225 -2 6 -10 18 -19 28 -8 9 -12 17 -8 17 4 0 2 6 -4 13
-19 22 -60 87 -55 87 3 0 -15 32 -40 70 -25 39 -45 72 -45 75 0 4 -69 123 -91
155 -5 8 -12 23 -15 33 -4 9 -10 17 -15 17 -5 0 -9 5 -9 11 0 7 -14 35 -32 63
-17 28 -45 76 -61 106 -16 30 -36 62 -43 71 -8 8 -14 19 -14 22 0 4 -11 26
-26 48 -22 36 -40 66 -78 134 -54 96 -79 136 -87 141 -5 3 -7 10 -4 15 4 5 1
9 -4 9 -6 0 -11 7 -11 15 0 8 -4 15 -10 15 -5 0 -10 9 -10 19 0 11 -3 21 -8
23 -6 3 -145 234 -188 315 -8 15 -24 42 -34 58 -11 17 -23 37 -27 45 -4 7 -24
42 -45 77 -21 34 -38 67 -38 73 0 5 -4 10 -9 10 -5 0 -11 8 -14 18 -4 9 -20
40 -37 67 -17 28 -33 58 -37 68 -3 9 -9 17 -13 17 -4 0 -10 8 -13 18 -3 9 -20
40 -36 67 -17 28 -34 57 -38 65 -4 8 -24 42 -45 75 -21 33 -38 66 -38 73 0 6
-4 12 -8 12 -5 0 -14 16 -22 35 -8 19 -17 35 -22 35 -4 0 -8 6 -8 14 0 8 -3
16 -8 18 -12 5 -70 121 -76 150 -8 44 12 96 75 195 32 52 59 98 59 104 0 5 5
9 10 9 6 0 10 4 10 9 0 5 18 38 39 72 92 149 141 231 141 239 0 5 3 10 8 12 7
3 62 84 62 92 0 3 20 37 45 75 25 38 45 74 45 80 0 6 4 11 8 11 5 0 17 18 27
40 10 22 22 40 27 40 5 0 6 5 3 10 -3 6 -1 10 4 10 6 0 11 7 11 15 0 8 5 15
10 15 6 0 10 4 10 9 0 8 27 54 147 248 7 13 12 24 11 26 -2 2 4 10 12 19 12
11 176 275 263 423 7 11 24 39 40 63 15 24 27 47 27 53 0 5 4 9 9 9 5 0 11 8
15 18 3 9 14 31 24 47 55 89 218 355 235 385 12 19 24 37 27 40 8 6 37 58 46
83 3 9 10 17 15 17 5 0 9 4 9 9 0 12 63 115 73 119 4 2 7 10 7 18 0 8 5 14 12
14 6 0 9 2 6 6 -5 4 162 282 227 377 52 76 36 74 673 76 512 1 611 3 620 11 1
1 5 3 10 4 4 0 20 11 36 23 37 29 66 88 66 134 0 36 -17 99 -30 109 -3 3 -41
67 -84 143 -43 75 -82 140 -87 143 -5 3 -7 10 -4 15 4 5 1 9 -4 9 -6 0 -11 4
-11 9 0 5 -25 50 -55 100 -30 51 -55 96 -55 101 0 6 -4 10 -10 10 -5 0 -10 5
-10 10 0 6 -16 35 -35 65 -19 30 -32 55 -29 55 2 0 0 6 -6 13 -18 21 -60 88
-60 95 -1 12 -84 98 -117 121 -29 20 -89 45 -138 58 -22 5 -1247 11 -1280 5z"/>
<path d="M5153 10351 c-17 -9 -43 -34 -58 -56 -23 -35 -26 -47 -22 -99 3 -33
11 -62 19 -67 7 -5 9 -9 5 -9 -4 0 5 -19 20 -43 42 -64 52 -81 60 -96 8 -18
279 -476 325 -549 76 -122 163 -178 286 -185 17 -1 32 -5 32 -10 0 -4 6 -5 12
0 17 10 49 10 71 0 11 -5 17 -3 17 4 0 9 3 9 14 0 10 -8 16 -9 21 -1 4 7 12 7
26 0 13 -8 25 -7 39 0 11 6 26 8 32 3 16 -9 50 -9 66 1 6 4 12 3 12 -3 0 -6
11 -6 30 -1 16 5 32 5 35 0 3 -4 21 -4 40 0 19 4 37 5 40 0 2 -4 25 -4 49 0
25 4 51 3 58 -1 6 -4 20 -3 29 2 10 5 20 5 23 0 3 -4 23 -5 45 -1 21 4 46 3
54 -2 10 -5 18 -4 22 2 5 8 11 8 20 0 9 -8 15 -8 20 0 3 6 11 8 16 4 16 -9 70
-11 75 -3 3 5 11 6 19 2 19 -7 73 14 102 40 31 28 56 97 49 138 -5 36 -17 59
-109 216 -31 54 -67 116 -80 138 -12 22 -24 42 -27 45 -5 5 -17 25 -57 99 -14
25 -31 53 -37 61 -6 8 -17 26 -25 40 -77 133 -96 165 -103 168 -4 2 -8 9 -8
15 0 24 -85 102 -141 129 -69 34 -132 38 -611 36 -411 -1 -477 -3 -505 -17z"/>
<path d="M7279 10350 c-55 -29 -77 -68 -83 -145 -3 -43 -1 -48 104 -225 35
-58 71 -120 82 -139 11 -19 53 -90 94 -158 41 -68 74 -128 74 -134 0 -5 5 -9
10 -9 6 0 10 -4 10 -10 0 -9 41 -78 77 -130 42 -59 124 -126 168 -136 114 -27
113 -27 173 -22 24 2 45 1 47 -3 3 -3 24 -3 49 1 24 4 52 3 60 -2 11 -6 16 -5
16 3 0 9 3 9 14 0 10 -8 16 -9 21 -1 4 7 12 7 26 0 13 -8 25 -7 39 0 11 6 26
8 32 3 16 -9 50 -9 66 1 6 4 12 3 12 -3 0 -6 11 -6 30 -1 16 5 32 5 35 0 3 -4
21 -4 40 0 19 4 37 5 40 0 2 -4 24 -4 49 0 24 4 52 3 60 -2 10 -5 24 -4 37 2
15 8 24 8 34 0 9 -8 15 -8 20 0 4 7 12 7 26 0 13 -8 25 -7 39 0 14 8 20 8 20
0 0 -7 6 -8 18 -2 9 4 24 8 32 7 8 -1 31 7 51 18 68 36 101 136 67 205 -9 17
-76 133 -150 257 -73 124 -140 238 -148 253 -67 123 -151 252 -185 287 -42 42
-104 78 -160 91 -16 5 -250 9 -520 11 -466 2 -492 1 -526 -17z"/>
<path d="M4600 8485 c0 -6 -70 -10 -192 -10 -212 0 -244 -6 -288 -55 -43 -48
-50 -93 -27 -162 10 -32 23 -58 28 -58 5 0 9 -4 9 -9 0 -9 121 -216 323 -556
40 -66 75 -121 80 -123 4 -2 7 -8 7 -13 0 -16 82 -89 120 -109 32 -15 55 -23
115 -36 27 -6 944 -6 972 0 87 19 138 105 115 193 -7 25 -21 58 -32 73 -11 15
-24 39 -30 54 -5 14 -14 26 -20 26 -5 0 -10 9 -10 20 0 11 -4 20 -9 20 -5 0
-11 8 -15 18 -3 9 -14 31 -23 47 -10 17 -49 82 -86 145 -37 63 -72 122 -78
130 -5 8 -12 23 -15 33 -4 9 -10 17 -15 17 -5 0 -9 5 -9 10 0 23 -115 198
-155 235 -84 79 -134 95 -313 99 -76 1 -143 5 -148 9 -6 3 -14 3 -18 -1 -12
-11 -270 -9 -278 3 -5 6 -8 6 -8 0z"/>
<path d="M6680 8485 c0 -6 -72 -10 -198 -10 -108 0 -199 -3 -202 -6 -3 -4 -12
-9 -19 -11 -17 -4 -39 -24 -67 -64 -41 -57 -17 -155 67 -276 11 -14 19 -28 19
-31 0 -3 29 -53 65 -112 36 -58 65 -107 65 -109 0 -3 29 -52 65 -111 36 -59
65 -110 65 -112 0 -21 140 -213 155 -213 3 0 15 -9 27 -20 21 -20 101 -50 148
-57 63 -8 967 -4 990 5 67 27 115 116 98 181 -9 34 -46 110 -59 121 -3 3 -16
25 -30 50 -13 25 -26 47 -29 50 -3 3 -16 25 -29 50 -14 25 -27 47 -30 50 -8 7
-48 78 -63 113 -7 15 -16 27 -20 27 -4 0 -8 4 -8 9 0 20 -192 329 -227 365
-41 42 -119 82 -180 92 -21 4 -162 7 -313 8 -174 0 -278 4 -282 11 -5 6 -8 7
-8 0z"/>
<path d="M8896 8482 c-4 -3 -114 -7 -244 -7 -250 -1 -272 -5 -314 -52 -26 -29
-46 -85 -41 -118 4 -31 23 -86 32 -95 6 -5 14 -18 59 -99 14 -25 29 -47 34
-49 4 -2 8 -8 8 -13 0 -5 27 -54 60 -110 33 -55 60 -105 60 -110 0 -5 5 -9 10
-9 6 0 10 -4 10 -9 0 -4 32 -61 70 -125 39 -65 70 -121 70 -127 0 -5 5 -9 10
-9 6 0 10 -6 10 -13 0 -12 87 -108 121 -132 23 -18 91 -42 135 -49 23 -4 253
-8 512 -8 l472 -1 40 27 c23 15 44 35 47 44 4 9 11 20 15 23 13 9 16 90 4 119
-9 21 -65 121 -109 195 -47 78 -60 101 -60 105 0 3 -8 16 -18 29 -11 13 -19
29 -19 37 0 7 -4 14 -8 16 -5 2 -22 26 -38 55 -53 94 -138 238 -143 243 -3 3
-15 22 -26 43 -28 55 -102 129 -155 154 -69 32 -94 35 -260 37 -85 0 -148 5
-152 11 -5 7 -8 7 -8 0 0 -12 -148 -14 -166 -2 -6 3 -14 3 -18 -1z"/>
<path d="M5313 6580 c-2 -3 -8 -5 -11 -5 -4 0 -21 -6 -37 -13 -43 -18 -83 -87
-80 -137 4 -62 6 -67 87 -202 112 -187 117 -196 130 -223 7 -14 15 -27 18 -30
5 -4 132 -216 164 -275 80 -143 168 -213 291 -232 33 -5 267 -9 521 -8 l460 0
42 28 c46 30 73 81 74 136 0 31 -38 122 -54 129 -5 2 -8 8 -8 12 0 5 -18 38
-40 72 -22 35 -40 69 -40 76 0 6 -4 12 -9 12 -5 0 -11 8 -14 18 -4 9 -17 35
-31 57 -14 22 -31 51 -39 65 -8 14 -27 48 -43 75 -15 28 -30 52 -33 55 -7 6
-27 40 -55 95 -12 22 -24 42 -27 45 -3 3 -14 21 -25 40 -28 50 -34 58 -87 112
-58 59 -123 90 -194 92 -29 0 -53 3 -53 6 0 8 -784 5 -798 -4 -6 -4 -12 -3
-12 1 0 10 -88 12 -97 3z"/>
<path d="M7426 6583 c-1 -1 -13 -4 -28 -7 -86 -15 -148 -128 -114 -206 6 -14
59 -108 119 -210 60 -102 117 -198 127 -215 218 -374 232 -394 326 -447 70
-39 105 -42 589 -43 260 -1 486 3 505 8 32 8 101 62 98 76 -1 3 4 17 9 31 21
49 1 106 -92 262 -70 118 -191 325 -194 332 -2 6 -8 15 -13 21 -10 12 -96 158
-118 200 -43 83 -174 184 -243 187 -12 1 -27 5 -34 10 -6 5 -14 5 -18 -2 -3
-6 -11 -7 -17 -3 -10 5 -896 12 -902 6z"/>
</g>
</svg>
